# xmcd CD database file
#
# Track frame offsets:
#	150
#	23447
#	43535
#	69105
#	71130
#	99680
#	114200
#	117250
#	155810
#	172940
#	178932
#	190875
#	215795
#	217602
#
# Disc length: 3098 seconds
#
# Revision: 4
# Processed by: cddbd v1.5.1PL0 Copyright (c) Steve Scherf et al.
# Submitted via: CDex 1.51
#
DISCID=be0c180e
DTITLE=Buffalo Daughter - New Rock
DYEAR=1998
DGENRE=
TTITLE0=New Rock
TTITLE1=R&B (Rhythm and Basement)
TTITLE2=Great Five Lakes
TTITLE3=What's The Trouble With My Silver Turkey?
TTITLE4=Autobacs
TTITLE5=Socks, Drugs and Rock'n'roll
TTITLE6=Airport Rock
TTITLE7=Super Blooper
TTITLE8=Sad Guitar
TTITLE9=No Tokyo
TTITLE10=No New Rock
TTITLE11=Sky High
TTITLE12=Down Sea
TTITLE13=Jellyfish Blues
EXTD=Buffalo Daughter is\nsuGar yoshinaga: guitars, tb-303,short wave radio,vocals\nyumiko ohno: bass, mini moog, vocals\nmoOog yamamoto: turn tables, voices\n\nbdhome page\nhttp://buffalo.eccosys.co.jp/ YEAR: 1998.01/28
EXTT0=
EXTT1=
EXTT2=
EXTT3=
EXTT4=
EXTT5=
EXTT6=
EXTT7=
EXTT8=
EXTT9=
EXTT10=
EXTT11=
EXTT12=
EXTT13=
PLAYORDER=
